<?xml version="1.0" standalone="no"?><!DOCTYPE svg PUBLIC "-//W3C//DTD SVG 1.1//EN" "http://www.w3.org/Graphics/SVG/1.1/DTD/svg11.dtd"><svg class="icon" width="200px" height="200.00px" viewBox="0 0 1024 1024" version="1.1" xmlns="http://www.w3.org/2000/svg"><path d="M806.243291 54.925414a121.62056 121.62056 0 0 1 121.62056 121.620561V470.789265a43.155683 43.155683 0 0 1-86.311365 0V176.545975a35.309195 35.309195 0 0 0-35.309195-35.309195h-588.486582a35.309195 35.309195 0 0 0-35.309195 35.309195v666.951459a35.309195 35.309195 0 0 0 35.309195 35.309195h270.860757a43.155683 43.155683 0 0 1 0 86.311365H217.756709a121.62056 121.62056 0 0 1-121.62056-121.62056v-666.951459a121.62056 121.62056 0 0 1 121.62056-121.620561h588.486582z m-350.306446 557.100631a31.385951 31.385951 0 1 1 0 62.771902h-156.929755a31.385951 31.385951 0 1 1 0-62.771902h156.929755z m75.679374-176.545974a31.385951 31.385951 0 1 1 0 62.771902h-235.394632a31.385951 31.385951 0 1 1 0-62.771902h235.394632z m81.250381-176.545975a31.385951 31.385951 0 1 1 0 62.771902h-313.85951a31.385951 31.385951 0 1 1 0-62.771902h313.85951z" fill="#000000" /><path d="M753.475661 547.998705a43.155683 43.155683 0 0 1 29.816653 0L957.28818 612.026045a43.155683 43.155683 0 0 1 28.011962 35.858449c9.690412 89.92075-1.686995 166.6594-35.113033 229.431302-33.975292 63.752713-89.92075 111.616288-166.149378 143.355332a43.155683 43.155683 0 0 1-32.798319 0.117697c-76.503256-31.032859-132.644876-79.092597-166.6594-143.629959-33.504503-63.595783-44.175726-140.569828-32.916016-230.019788a43.155683 43.155683 0 0 1 27.894264-35.113033l173.956633-64.02734z m14.908326 86.468295l-133.664918 49.197478-0.196163 2.707039c-3.648617 55.474668 3.727082 102.357433 21.656307 141.040617l4.707892 9.49425c20.871657 39.624763 53.944603 70.814552 100.395811 93.883226l5.963331 2.785503 6.081028-2.9032c42.998753-21.695539 74.541634-49.942895 95.609453-85.016695l5.021752-8.905763c21.342447-40.017088 30.797464-90.116912 27.776567-150.848728l-0.196162-2.432411-133.154898-49.001316z" fill="#000000" /></svg>