<?xml version="1.0" standalone="no"?><!DOCTYPE svg PUBLIC "-//W3C//DTD SVG 1.1//EN" "http://www.w3.org/Graphics/SVG/1.1/DTD/svg11.dtd"><svg class="icon" width="200px" height="196.73px" viewBox="0 0 1041 1024" version="1.1" xmlns="http://www.w3.org/2000/svg"><path d="M575.49312 82.313846a122.092308 122.092308 0 0 1 36.706462 36.706462l387.387076 602.663384a122.092308 122.092308 0 0 1-102.675692 188.100923H122.058043a122.092308 122.092308 0 0 1-102.675692-188.100923L406.769428 119.020308a122.092308 122.092308 0 0 1 168.723692-36.667077z m-95.822769 83.574154L92.243889 768.512a35.446154 35.446154 0 0 0 29.814154 54.626462h774.852923a35.446154 35.446154 0 0 0 29.814154-54.626462L539.298658 165.888a35.446154 35.446154 0 0 0-59.628307 0zM509.484505 669.538462a59.076923 59.076923 0 1 1 0 118.153846 59.076923 59.076923 0 0 1 0-118.153846z m0-374.153847a67.741538 67.741538 0 0 1 66.323692 81.526154l-43.204923 207.241846a23.630769 23.630769 0 0 1-20.361846 18.668308l-3.741539 0.118154-3.820307-0.472615a23.630769 23.630769 0 0 1-18.313847-18.313847L443.160812 376.910769A67.741538 67.741538 0 0 1 509.484505 295.384615z" fill="#000000" /><path d="M505.624812 580.135385l-43.165538-207.241847a48.049231 48.049231 0 1 1 94.050461 0l-43.165538 207.241847a3.938462 3.938462 0 0 1-7.719385 0z" fill="#000000" /></svg>