<?xml version="1.0" standalone="no"?><!DOCTYPE svg PUBLIC "-//W3C//DTD SVG 1.1//EN" "http://www.w3.org/Graphics/SVG/1.1/DTD/svg11.dtd"><svg class="icon" width="200px" height="200.00px" viewBox="0 0 1024 1024" version="1.1" xmlns="http://www.w3.org/2000/svg"><path d="M573.046154 24.615385l330.515692 190.818461a122.092308 122.092308 0 0 1 61.046154 105.747692v381.636924a122.092308 122.092308 0 0 1-61.046154 105.747692l-330.515692 190.818461a122.092308 122.092308 0 0 1-122.092308 0L120.438154 808.566154a122.092308 122.092308 0 0 1-61.046154-105.747692v-381.636924a122.092308 122.092308 0 0 1 61.046154-105.747692L450.953846 24.615385a122.092308 122.092308 0 0 1 122.092308 0z m-78.769231 75.027692L163.761231 290.461538a35.446154 35.446154 0 0 0-17.723077 30.72v381.636924a35.446154 35.446154 0 0 0 17.723077 30.72l330.515692 190.818461a35.446154 35.446154 0 0 0 35.446154 0l330.515692-190.818461a35.446154 35.446154 0 0 0 17.723077-30.72v-381.636924a35.446154 35.446154 0 0 0-17.723077-30.72L529.723077 99.643077a35.446154 35.446154 0 0 0-35.446154 0z m310.468923 246.587077a31.507692 31.507692 0 0 1-12.091077 42.889846l-145.092923 81.211077a141.824 141.824 0 0 1-108.583384 180.893538l-0.039385 173.410462a31.507692 31.507692 0 1 1-63.015385 0v-175.458462a141.863385 141.863385 0 0 1-101.415384-171.992615l-151.709539-80.817231a31.507692 31.507692 0 0 1 29.617231-55.611077l150.843077 80.305231A141.469538 141.469538 0 0 1 512 370.215385a141.390769 141.390769 0 0 1 104.093538 45.528615l145.762462-81.604923a31.507692 31.507692 0 0 1 42.889846 12.091077zM512 433.230769a78.769231 78.769231 0 1 0 0 157.538462 78.769231 78.769231 0 0 0 0-157.538462z" fill="#000000" /></svg>