<?xml version="1.0" standalone="no"?><!DOCTYPE svg PUBLIC "-//W3C//DTD SVG 1.1//EN" "http://www.w3.org/Graphics/SVG/1.1/DTD/svg11.dtd"><svg class="icon" width="200px" height="200.00px" viewBox="0 0 1024 1024" version="1.1" xmlns="http://www.w3.org/2000/svg"><path d="M240.758154 986.348308a122.092308 122.092308 0 0 1-122.092308-122.092308V464.738462a43.323077 43.323077 0 0 1-57.737846-1.339077l-3.465846-3.702154a43.323077 43.323077 0 0 1 5.198769-61.046154L481.673846 45.686154a43.323077 43.323077 0 0 1 55.650462-0.196923l424.36923 353.083077a43.323077 43.323077 0 0 1-43.047384 73.846154V866.461538a122.092308 122.092308 0 0 1-122.092308 122.092308H720.738462a43.323077 43.323077 0 0 1 0-86.646154h75.815384a35.446154 35.446154 0 0 0 35.446154-35.446154V403.337846l-322.205538-268.051692-304.443077 256.472615v472.497231a35.446154 35.446154 0 0 0 35.446153 35.446154l302.749539-0.039385v-282.545231a35.446154 35.446154 0 0 0-35.446154-35.446153h-74.555077a35.446154 35.446154 0 0 0-35.446154 34.658461l-5.198769 227.249231a43.323077 43.323077 0 1 1-86.646154-1.969231l5.238154-227.288615a122.092308 122.092308 0 0 1 122.052923-119.335385h74.594462a122.092308 122.092308 0 0 1 122.092307 122.092308v325.947077a43.323077 43.323077 0 0 1-38.596923 43.047384l-4.726154 0.275693H240.758154z" fill="#000000" /></svg>